<svg width="166" height="13" viewBox="0 0 166 13" fill="none" xmlns="http://www.w3.org/2000/svg">
<g id="Frame" clip-path="url(#clip0_448_5388)">
<path id="Vector" d="M152.524 3.10663C148.912 2.79521 145.299 2.55444 141.687 2.28227C140.495 2.18908 139.296 2.1743 138.104 2.12036C135.516 2.00211 132.927 1.89171 130.339 1.77346C128.9 1.70862 127.454 1.63586 126.015 1.57887C125.595 1.558 125.175 1.55282 124.755 1.54764C123.815 1.53606 122.876 1.54018 121.936 1.53646C117.666 1.49168 113.389 1.44683 109.119 1.39421C108.099 1.38164 107.085 1.40055 106.066 1.40368C103.544 1.41185 101.028 1.42795 98.5123 1.4362C95.669 1.44826 92.8322 1.429 89.9884 1.48816C85.3888 1.57278 80.7953 1.66533 76.1958 1.74995C73.5312 1.80346 70.8733 1.81781 68.2081 1.91842C63.6198 2.09738 59.0377 2.26857 54.4495 2.43968C51.9451 2.53442 49.441 2.60562 46.9359 2.7553C42.1918 3.03439 37.4478 3.30564 32.7037 3.58473C30.1677 3.73404 27.6324 3.83624 25.1014 4.07981C20.3737 4.53181 15.6522 4.98389 10.9245 5.43589C9.9035 5.53321 8.88247 5.63053 7.86144 5.72785C5.82556 5.92256 3.78814 6.24287 1.75757 6.5083C1.6275 6.53025 1.49743 6.55219 1.37355 6.57422C1.13147 6.65759 0.913238 6.8119 0.731217 7.03731C0.461325 7.37154 0.301122 7.83273 0.295125 8.31937C0.289224 8.79816 0.437917 9.271 0.699394 9.61963C0.936636 9.92871 1.35338 10.2165 1.71249 10.1659C4.17024 9.84296 6.62201 9.50421 9.0787 9.26758C11.3621 9.05236 13.6393 8.82922 15.9227 8.61401C18.4103 8.37776 20.8979 8.1415 23.3855 7.90525C24.388 7.80771 25.3908 7.67876 26.399 7.62053C30.2772 7.39357 34.1552 7.17445 38.0333 6.95534C40.4517 6.81244 42.8701 6.67739 45.2885 6.53449C46.2905 6.47618 47.2866 6.4021 48.2884 6.3595C52.1285 6.21057 55.9746 6.07741 59.8145 5.94418C62.1456 5.863 64.4707 5.7739 66.8019 5.69273C67.5872 5.66315 68.3664 5.62566 69.1515 5.61178C73.2998 5.5373 77.4479 5.47066 81.596 5.40403C83.9143 5.36195 86.2264 5.32764 88.5447 5.28556C89.3669 5.27214 90.1955 5.2431 91.0175 5.24538C95.2946 5.24314 99.5718 5.24089 103.849 5.23865C106.519 5.23231 109.183 5.23373 111.853 5.27448C116.395 5.34616 120.937 5.40998 125.472 5.48158C126.369 5.49262 127.264 5.55076 128.16 5.60104C130.668 5.72615 133.169 5.85118 135.677 5.97629C137.555 6.07008 139.433 6.16387 141.317 6.25774C142.651 6.32129 143.978 6.46325 145.312 6.57388C149.233 6.88911 153.153 7.22003 157.068 7.57443C158.062 7.66518 159.055 7.77163 160.049 7.87807C161.117 7.99329 162.185 8.10065 163.246 8.26288C163.413 8.29633 163.573 8.33756 163.739 8.38671C164.158 8.50177 164.56 8.47533 164.94 8.20526C165.29 7.9505 165.554 7.52201 165.672 7.02889C165.907 5.99557 165.426 4.88277 164.614 4.5823C163.9 4.3223 163.16 4.21112 162.426 4.10787C161.92 4.03884 161.42 3.96203 160.914 3.89299C159.945 3.75545 158.97 3.68063 158.001 3.57448C156.174 3.38711 154.346 3.26253 152.524 3.10663Z" fill="#6663FF"/>
</g>
<defs>
<clipPath id="clip0_448_5388">
<rect width="165.398" height="10.1338" fill="white" transform="translate(0.397461 0.0151367) rotate(0.706043)"/>
</clipPath>
</defs>
</svg>
