<svg width="308" height="344" viewBox="0 0 308 344" fill="none" xmlns="http://www.w3.org/2000/svg">
<mask id="path-1-inside-1_849_1477" fill="white">
<path fill-rule="evenodd" clip-rule="evenodd" d="M11 0C4.92487 0 0 4.92487 0 11V333C0 339.075 4.92486 344 11 344H219.329C230.49 344 238 330.161 238 319V319C238 295.252 257.252 276 281 276V276C292.725 276 308 268.063 308 256.338V11C308 4.92487 303.075 0 297 0H11Z"/>
</mask>
<path fill-rule="evenodd" clip-rule="evenodd" d="M11 0C4.92487 0 0 4.92487 0 11V333C0 339.075 4.92486 344 11 344H219.329C230.49 344 238 330.161 238 319V319C238 295.252 257.252 276 281 276V276C292.725 276 308 268.063 308 256.338V11C308 4.92487 303.075 0 297 0H11Z" fill="white"/>
<path d="M1 11C1 5.47716 5.47715 1 11 1V-1C4.37258 -1 -1 4.37259 -1 11H1ZM1 333V11H-1V333H1ZM11 343C5.47715 343 1 338.523 1 333H-1C-1 339.627 4.37258 345 11 345V343ZM219.329 343H11V345H219.329V343ZM239 319C239 295.804 257.804 277 281 277V275C256.699 275 237 294.699 237 319H239ZM307 11V256.338H309V11H307ZM297 1C302.523 1 307 5.47715 307 11H309C309 4.37258 303.627 -1 297 -1V1ZM11 1H297V-1H11V1ZM281 277C287.061 277 294 274.957 299.444 271.403C304.876 267.857 309 262.672 309 256.338H307C307 261.728 303.487 266.375 298.35 269.728C293.225 273.075 286.664 275 281 275V277ZM219.329 345C225.361 345 230.299 341.259 233.679 336.244C237.062 331.225 239 324.781 239 319H237C237 324.38 235.183 330.436 232.021 335.126C228.856 339.821 224.458 343 219.329 343V345Z" fill="#EEEEEE" mask="url(#path-1-inside-1_849_1477)"/>
</svg>
